<svg width="35" height="34" viewBox="0 0 35 34" fill="none" xmlns="http://www.w3.org/2000/svg">
<path d="M13.5813 22.2795L15.7744 17.892C15.9938 17.4531 16.1035 17.2336 16.1035 16.9976C16.1035 16.7615 15.9937 16.5421 15.7742 16.1032L13.5805 11.717C12.4707 9.4978 11.9157 8.3882 12.4254 7.87849C12.9351 7.36878 14.0447 7.92373 16.2639 9.03363L28.6157 15.2112C30.1767 15.9919 30.9572 16.3822 30.9571 17.0003C30.9571 17.6183 30.1765 18.0085 28.6153 18.7889L16.2645 24.9626C14.0464 26.0714 12.9374 26.6257 12.4278 26.1161C11.9182 25.6066 12.4726 24.4975 13.5813 22.2795Z" fill="#FD9795"/>
</svg>
